<svg xmlns="http://www.w3.org/2000/svg" viewBox="0 0 512 512">
  <rect width="512" height="512" fill="#039"/>
  <g fill="#fc0">
    <path d="M256,100 L269,141 L312,141 L277,166 L290,208 L256,183 L222,208 L235,166 L200,141 L243,141 Z"/>
    <path d="M256,160 L269,201 L312,201 L277,226 L290,268 L256,243 L222,268 L235,226 L200,201 L243,201 Z"/>
    <path d="M176,130 L189,171 L232,171 L197,196 L210,238 L176,213 L142,238 L155,196 L120,171 L163,171 Z"/>
    <path d="M336,130 L349,171 L392,171 L357,196 L370,238 L336,213 L302,238 L315,196 L280,171 L323,171 Z"/>
    <path d="M336,250 L349,291 L392,291 L357,316 L370,358 L336,333 L302,358 L315,316 L280,291 L323,291 Z"/>
    <path d="M176,250 L189,291 L232,291 L197,316 L210,358 L176,333 L142,358 L155,316 L120,291 L163,291 Z"/>
    <path d="M256,290 L269,331 L312,331 L277,356 L290,398 L256,373 L222,398 L235,356 L200,331 L243,331 Z"/>
  </g>
</svg> 