<svg xmlns="http://www.w3.org/2000/svg" viewBox="0 0 512 512">
  <rect width="512" height="512" fill="#de2910"/>
  <g fill="#fff">
    <path d="M256,128 C276,148 296,154 320,154 C296,174 290,194 290,218 C270,194 250,188 226,188 C250,168 256,148 256,128 z"/>
    <path d="M241,231 C232,252 217,267 198,274 C217,283 229,300 233,320 C242,299 257,284 276,277 C257,268 245,251 241,231 z"/>
    <path d="M198,304 C198,325 206,344 221,358 C198,358 178,366 163,380 C163,359 155,340 140,326 C163,326 183,318 198,304 z"/>
    <path d="M163,197 C183,197 203,189 218,175 C218,196 226,215 241,229 C221,229 201,237 186,251 C186,230 178,211 163,197 z"/>
    <path d="M256,358 C257,336 249,316 235,301 C256,301 276,293 291,279 C290,301 298,321 312,336 C291,336 271,344 256,358 z"/>
  </g>
</svg> 